<svg width="612" height="173" viewBox="0 0 612 173" fill="none" xmlns="http://www.w3.org/2000/svg">
<path d="M612 0.129272H0V172.789H612V0.129272Z" fill="#03A062"/>
<path d="M612 133.032V39.8955H607.572V47.4268H599.329V39.8955H586.018V44.8307H564.464V52.362H545.47V39.8955H530.24V47.1607H509.326V39.8955H494.761V46.647H476.995V39.8955H456.082V43.0053H426.926V39.8955H409.186V48.9862H392.061V39.8955H378.75V44.8307H354.048V50.8025H330.6V42.4915H314.755V46.9039H300.804V41.7118H281.144V47.9405H251.988V39.8955H228.54V43.785H208.881V39.8955H191.141V43.5281H164.519V50.0228H147.42V39.8955H132.189V45.3444H110.635V39.8955H99.8839V43.2713H66.9135V51.5823H51.7082V39.8955H28.8747V44.5647H0V133.032H612Z" fill="#2FC768"/>
<path d="M612 172.789V79.6526H607.572V87.1839H599.329V79.6526H586.018V84.5878H564.464V92.1191H545.47V79.6526H530.24V86.927H509.326V79.6526H494.761V86.4041H476.995V79.6526H456.082V82.7715H426.926V79.6526H409.186V88.7433H392.061V79.6526H378.75V84.5878H354.048V90.5596H330.6V82.2486H314.755V86.6702H300.804V81.4689H281.144V87.7067H251.988V79.6526H228.54V83.5512H208.881V79.6526H191.141V83.2944H164.519V89.7799H147.42V79.6526H132.189V85.1107H110.635V79.6526H99.8839V83.0284H66.9135V91.3394H51.7082V79.6526H28.8747V84.331H0V172.789H612Z" fill="#49D77E"/>
</svg>
